# xmcd
#
# Track frame offsets:
#	150
#	18007
#	33530
#	41637
#	60110
#	79110
#	90357
#	108672
#	125415
#	140212
#
# Disc length: 2111 seconds
#
# Revision: 1
# Processed by: cddbd v1.5.2PL0 Copyright (c) Steve Scherf et al.
# Submitted via: audiograbber 1.83.01
#
DISCID=79083d0a
DTITLE=New Wine - I'm Not Giving Up
DYEAR=1900
DGENRE=Gospel
TTITLE0=I'm Not Giving Up
TTITLE1=In The Shelter Of His Arms
TTITLE2=Walk Right Out Of This Valley
TTITLE3=Share It With Jesus
TTITLE4=Guilty Of Loving Me
TTITLE5=Count Your Blessings
TTITLE6=There Rose A Lamb
TTITLE7=Go Rest High On That Mountain
TTITLE8=My Lord And I
TTITLE9=It's Not In Vain
EXTD=
EXTT0=
EXTT1=
EXTT2=
EXTT3=
EXTT4=
EXTT5=
EXTT6=
EXTT7=
EXTT8=
EXTT9=
PLAYORDER=
